<?xml version="1.0" encoding="utf-8"?><!DOCTYPE svg PUBLIC "-//W3C//DTD SVG 1.1//EN" "http://www.w3.org/Graphics/SVG/1.1/DTD/svg11.dtd"><svg id="ic_fluent_code_20_filled" width="16" height="16" style="width:16px;height:16px;" version="1.1" xmlns="http://www.w3.org/2000/svg" viewBox="0 0 500 500" enable-background="new 0 0 500 500" xml:space="preserve"><path fill="#000000" d="M341.25 32.05 q5 -8.75 1.25 -17.5 q-3.75 -8.75 -12.5 -12.5 q-8.75 -3.75 -18.13 -0.63 q-9.38 3.13 -13.13 11.88 l-171.25 391.25 q-6.25 12.5 1.88 23.75 q8.13 11.25 21.88 9.38 q13.75 -1.88 18.75 -14.38 l171.25 -391.25 ZM383.75 338.3 q-7.5 -6.25 -8.75 -15.63 q-1.25 -9.38 5 -16.88 l67.5 -87.5 l-67.5 -87.5 q-6.25 -7.5 -4.38 -16.88 q1.88 -9.38 9.38 -15 q7.5 -5.63 16.88 -4.38 q9.38 1.25 15.63 7.5 l77.5 102.5 q5 6.25 5 13.75 q0 7.5 -5 13.75 l-77.5 102.5 q-6.25 7.5 -16.25 8.75 q-10 1.25 -17.5 -5 ZM116.25 98.3 q7.5 6.25 8.75 15.63 q1.25 9.38 -5 16.88 l-67.5 87.5 l67.5 87.5 q8.75 10 3.75 23.13 q-5 13.13 -18.75 15 q-13.75 1.88 -22.5 -9.38 l-77.5 -102.5 q-5 -6.25 -5 -13.75 q0 -7.5 5 -13.75 l77.5 -102.5 q6.25 -7.5 16.25 -8.75 q10 -1.25 17.5 5 Z"/></svg>