<?xml version="1.0" encoding="utf-8"?><!DOCTYPE svg PUBLIC "-//W3C//DTD SVG 1.1//EN" "http://www.w3.org/Graphics/SVG/1.1/DTD/svg11.dtd"><svg id="ic_fluent_window_console_20_regular" width="16" height="16" style="width:16px;height:16px;" version="1.1" xmlns="http://www.w3.org/2000/svg" viewBox="0 0 500 500" enable-background="new 0 0 500 500" xml:space="preserve"><path fill="#000000" d="M94.29 220 q5.71 -5.71 12.86 -5.71 q7.14 0 12.85 5.71 l71.43 71.43 q5.71 4.28 5.71 12.14 q0 7.86 -5.71 12.14 l-71.43 71.43 q-5.71 5.72 -12.85 5.72 q-7.15 0 -12.86 -5 q-5.72 -5 -5.72 -12.86 q0 -7.86 5.72 -12.14 l58.57 -60 l-58.57 -58.57 q-5.72 -4.29 -5.72 -12.15 q0 -7.85 5.72 -12.14 ZM411.43 357.14 l-178.57 0 q-8.57 0 -13.57 5 q-5 5 -5 12.86 q0 7.86 5 12.86 q5 5 12.14 5 l180 0 q7.14 0 12.14 -5 q5 -5 5 -12.86 q0 -7.86 -5 -12.86 q-5 -5 -12.14 -5 ZM0 88.57 q0 -35.71 26.43 -62.14 q26.43 -26.43 62.14 -26.43 l321.43 0 q37.14 0 63.57 26.43 q26.43 26.43 26.43 63.57 l0 320 q0 37.14 -26.43 63.57 q-26.43 26.43 -63.57 26.43 l-321.43 0 q-35.71 0 -62.14 -26.43 q-26.43 -26.43 -26.43 -63.57 l0 -321.43 ZM464.29 107.14 l0 -18.57 q0 -21.43 -15.71 -37.14 q-15.72 -15.71 -38.58 -15.71 l-321.43 0 q-21.43 0 -37.14 15.71 q-15.71 15.72 -15.71 38.58 l0 17.14 l428.58 0 ZM35.71 142.86 l0 267.14 q0 22.86 15.71 38.58 q15.72 15.71 37.14 15.71 l321.43 0 q22.86 0 38.58 -15.71 q15.71 -15.72 15.71 -38.58 l0 -267.14 l-428.58 0 Z"/></svg>