<?xml version="1.0" encoding="utf-8"?><!DOCTYPE svg PUBLIC "-//W3C//DTD SVG 1.1//EN" "http://www.w3.org/Graphics/SVG/1.1/DTD/svg11.dtd"><svg id="ic_fluent_link_square_20_regular" width="16" height="16" style="width:16px;height:16px;" version="1.1" xmlns="http://www.w3.org/2000/svg" viewBox="0 0 500 500" enable-background="new 0 0 500 500" xml:space="preserve"><path fill="#000000" d="M78.75 31.25 q-20 0 -33.75 13.75 q-13.75 13.75 -13.75 33.75 l0 186.25 q0 20 13.75 33.75 q13.75 13.75 33.75 13.75 l46.25 0 l0 31.25 l-46.25 0 q-32.5 0 -55.63 -23.13 q-23.13 -23.13 -23.13 -55.63 l0 -187.5 q0 -31.25 23.13 -54.38 q23.13 -23.13 54.38 -23.13 l188.75 0 q31.25 0 54.38 23.13 q23.13 23.13 23.13 55.63 l0 186.25 q0 32.5 -23.13 55.63 q-23.13 23.13 -55.63 23.13 l-46.25 0 l0 -31.25 l47.5 0 q18.75 0 32.5 -13.75 q13.75 -13.75 13.75 -33.75 l0 -187.5 q0 -18.75 -13.75 -32.5 q-13.75 -13.75 -33.75 -13.75 l-186.25 0 ZM235 156.25 l46.25 0 l0 31.25 l-46.25 0 q-20 0 -33.75 13.75 q-13.75 13.75 -13.75 33.75 l0 186.25 q0 20 13.75 33.75 q13.75 13.75 33.75 13.75 l187.5 0 q18.75 0 32.5 -13.75 q13.75 -13.75 13.75 -33.75 l0 -187.5 q0 -18.75 -13.75 -32.5 q-13.75 -13.75 -33.75 -13.75 l-46.25 0 l0 -31.25 l47.5 0 q31.25 0 54.38 23.13 q23.13 23.13 23.13 54.38 l0 187.5 q0 32.5 -23.13 55.63 q-23.13 23.13 -55.63 23.13 l-186.25 0 q-32.5 0 -55.63 -23.13 q-23.13 -23.13 -23.13 -54.38 l0 -188.75 q0 -31.25 23.13 -54.38 q23.13 -23.13 55.63 -23.13 Z"/></svg>