<?xml version="1.0" encoding="utf-8"?><!DOCTYPE svg PUBLIC "-//W3C//DTD SVG 1.1//EN" "http://www.w3.org/Graphics/SVG/1.1/DTD/svg11.dtd"><svg id="ic_fluent_link_multiple_20_regular" width="40" height="40" style="width:40px;height:40px;" version="1.1" xmlns="http://www.w3.org/2000/svg" viewBox="0 0 500 500" enable-background="new 0 0 500 500" xml:space="preserve"><path fill="#000000" d="M0 111.13 q0 -30.01 15 -55.57 q15 -25.56 40.56 -40.56 q25.56 -15 55.57 -15 l166.68 0 q30.01 0 55.56 15 q25.56 15 40.56 40.56 q15 25.56 15 55.56 q0 30 -15 55.56 q-15 25.56 -40.56 40.56 q-25.56 15 -55.56 15 l-41.11 0 q-6.67 0 -10.56 -3.89 q-3.89 -3.89 -3.89 -10 q0 -6.11 3.89 -10 q3.89 -3.89 9.45 -3.89 l42.22 0 q34.45 0 58.9 -24.45 q24.45 -24.45 24.45 -58.89 q0 -34.44 -24.45 -58.89 q-24.45 -24.45 -58.9 -24.45 l-166.68 0 q-31.12 0 -54.45 20.01 q-23.34 20.01 -27.78 51.12 q-4.45 31.12 12.22 57.23 q16.67 26.12 45.56 35 q-3.34 13.33 -3.34 27.78 q-36.67 -10 -60.01 -40 q-23.34 -30 -23.34 -67.78 ZM472.28 222.25 q0 -27.78 -16.67 -50 q-16.67 -22.22 -42.22 -30 q3.33 -13.33 3.33 -27.78 q40 11.11 63.89 45.56 q23.89 34.45 18.34 76.12 q-5.56 41.67 -36.67 69.46 q-31.11 27.78 -73.34 27.78 l-166.69 0 q-30 0 -55.56 -15 q-25.56 -15 -40.56 -40.56 q-15 -25.56 -15 -55.56 q0 -30 15 -55.56 q15 -25.56 40.56 -40.56 q25.56 -15 55.56 -15 l42.23 0 q5.55 0 9.44 3.89 q3.89 3.89 3.89 10 q0 6.11 -3.89 10 q-3.89 3.89 -9.44 3.89 l-42.23 0 q-34.45 0 -58.89 24.45 q-24.45 24.44 -24.45 58.89 q0 34.45 24.45 58.89 q24.44 24.44 58.89 24.44 l166.69 0 q34.45 0 58.89 -24.44 q24.44 -24.44 24.44 -58.89 Z"/></svg>