<?xml version="1.0" encoding="utf-8"?><!DOCTYPE svg PUBLIC "-//W3C//DTD SVG 1.1//EN" "http://www.w3.org/Graphics/SVG/1.1/DTD/svg11.dtd"><svg id="ic_fluent_data_trending_48_filled" width="16" height="16" style="width:16px;height:16px;" version="1.1" xmlns="http://www.w3.org/2000/svg" viewBox="0 0 500 500" enable-background="new 0 0 500 500" xml:space="preserve"><path fill="#000000" d="M20.06 0 q9.33 0 15.33 6.67 q6 6.67 6 14.66 l0 389.28 q0 20 14 34 q14 14 34 14 l389.28 0 q8 0 14.67 6 q6.66 6 6.66 14.66 q0 8.67 -6.66 14.67 q-6.67 6 -14.67 6 l-389.28 0 q-37.33 0 -64 -26 q-26.66 -26 -25.34 -63.33 l0 -389.28 q0 -8 6 -14.66 q6 -6.67 14 -6.67 ZM444.01 154.65 l0 89.32 q0 8 6 14 q6 6 14.66 6 q8.67 0 14.67 -6 q6 -6 6 -14 l0 -138.65 q0 -9.33 -6 -15.33 q-6 -6 -15.34 -6 l-138.64 0 q-8 0 -14 6 q-6 6 -6 14.67 q0 8.66 6 14.66 q6 6 14 6 l89.32 0 l-117.32 117.32 l-61.33 -56 q-6.66 -5.33 -14.66 -5.33 q-8 0 -14.67 5.33 l-117.31 110.66 q-9.34 9.33 -6.67 20.66 q2.67 11.33 14.66 15.33 q12 4 20 -5.33 l103.99 -97.32 l62.66 55.99 q6.66 5.33 14.66 5.33 q8 0 14.67 -5.33 l130.65 -131.98 Z"/></svg>